<svg xmlns="http://www.w3.org/2000/svg" width="900" height="430" viewBox="0 0 900 430">
  <rect width="900" height="430" fill="#fbf7ee"/>
  <path d="M90 320 C180 270 180 220 280 250 S390 140 490 190 S610 90 710 130 S790 70 830 80" fill="none" stroke="#b87824" stroke-width="5" stroke-dasharray="9 12"/>
  <g fill="#f8c63c" stroke="#27313c" stroke-width="3"><circle cx="90" cy="320" r="19"/><circle cx="280" cy="250" r="19"/><circle cx="490" cy="190" r="19"/><circle cx="710" cy="130" r="19"/><circle cx="830" cy="80" r="19"/></g>
  <g font-family="ui-monospace,monospace" font-size="18" fill="#27313c"><text x="70" y="370">2010/11</text><text x="255" y="300">2012/13</text><text x="465" y="240">2014/15</text><text x="680" y="180">2016/17</text><text x="76" y="46" font-size="26" font-family="Georgia,serif">STATE FLIGHT PATHS</text><text x="76" y="76" fill="#8b8172">y = colony loss · size = colonies</text></g>
  <path d="M85 330 L85 105 M85 330 L835 330" stroke="#b8ad9d" stroke-width="2"/>
  <text x="20" y="130" fill="#8b8172" font-family="ui-monospace,monospace" font-size="14" transform="rotate(-90 20,130)">higher loss</text>
</svg>
